<svg xmlns="http://www.w3.org/2000/svg" width="600" height="900" viewBox="0 0 600 900" role="img" aria-labelledby="title desc">
  <title id="title">Book cover unavailable</title>
  <desc id="desc">A simple illustrated book placeholder</desc>
  <rect width="600" height="900" fill="#f8fafc"/>
  <rect x="105" y="120" width="390" height="600" rx="24" fill="#e2e8f0"/>
  <path d="M180 250c0-22 18-40 40-40h80c26 0 50 12 65 32 15-20 39-32 65-32h-10c22 0 40 18 40 40v330c0 17-13 30-30 30h-80c-21 0-40 8-55 22-15-14-34-22-55-22h-80c-17 0-30-13-30-30V250z" fill="#94a3b8"/>
  <path d="M300 242v350M200 300h70M200 350h70M330 300h70M330 350h70" stroke="#f8fafc" stroke-width="18" stroke-linecap="round"/>
  <text x="300" y="800" text-anchor="middle" font-family="Arial, sans-serif" font-size="28" fill="#475569">Cover unavailable</text>
</svg>
